<svg xmlns="http://www.w3.org/2000/svg" viewBox="0 0 340 128" role="img" aria-label="Relay for Codex logo">
  <defs>
    <linearGradient id="relay-logo-bg" x1="18" y1="12" x2="110" y2="116" gradientUnits="userSpaceOnUse">
      <stop offset="0%" stop-color="#FFF7ED"/>
      <stop offset="100%" stop-color="#FED7AA"/>
    </linearGradient>
    <linearGradient id="relay-logo-baton" x1="46" y1="39" x2="82" y2="90" gradientUnits="userSpaceOnUse">
      <stop offset="0%" stop-color="#FB923C"/>
      <stop offset="100%" stop-color="#EA580C"/>
    </linearGradient>
  </defs>
  <rect x="8" y="8" width="112" height="112" rx="28" fill="url(#relay-logo-bg)"/>
  <path d="M36 89c0-17 14-31 31-31h19c10 0 18-8 18-18" fill="none" stroke="#0F172A" stroke-width="13" stroke-linecap="round"/>
  <path d="M98 39c0 17-14 31-31 31H48c-10 0-18 8-18 18" fill="none" stroke="#0F172A" stroke-width="13" stroke-linecap="round"/>
  <circle cx="36" cy="89" r="9" fill="#14B8A6"/>
  <circle cx="98" cy="39" r="9" fill="#F97316"/>
  <g transform="rotate(-34 64 64)">
    <rect x="48" y="29" width="32" height="70" rx="16" fill="url(#relay-logo-baton)"/>
    <rect x="48" y="29" width="32" height="18" rx="16" fill="#FDBA74"/>
    <path d="M48 58h32" stroke="#0F172A" stroke-width="6" stroke-linecap="round" opacity="0.18"/>
  </g>
  <text x="144" y="58" fill="#0F172A" font-family="'Avenir Next', 'Segoe UI', sans-serif" font-size="34" font-weight="800" letter-spacing="-1">Relay</text>
  <text x="146" y="85" fill="#EA580C" font-family="'Avenir Next', 'Segoe UI', sans-serif" font-size="15" font-weight="700" letter-spacing="3">FOR CODEX</text>
</svg>
